name Walk8.mot
datacolumns 19
datarows 22
range 1.90700000 1.92800000
endheader

                time	   L_ground_force_vx	   L_ground_force_vy	   L_ground_force_vz	   L_ground_force_px	   L_ground_force_py	   L_ground_force_pz	   R_ground_force_vx	   R_ground_force_vy	   R_ground_force_vz	   R_ground_force_px	   R_ground_force_py	   R_ground_force_pz	   L_ground_torque_x	   L_ground_torque_y	   L_ground_torque_z	   R_ground_torque_x	   R_ground_torque_y	   R_ground_torque_z	
          1.90700000	          0.07030195	          0.22893485	         -0.00389984	         -0.00011822	          0.00000000	         -0.00002831	         -9.45990038	        505.70861870	        -31.38733975	          0.29232767	          0.00000000	          0.11186972	          0.00000000	         -0.00028578	          0.00000000	          0.00000000	          0.29577482	          0.00000000	
          1.90800000	          0.06722864	          0.22135247	         -0.00365557	         -0.00012614	          0.00000000	         -0.00003143	         -9.26909975	        505.89883532	        -31.22583084	          0.29271528	          0.00000000	          0.11180975	          0.00000000	         -0.00025949	          0.00000000	          0.00000000	          0.30778338	          0.00000000	
          1.90900000	          0.06416259	          0.21357833	         -0.00341825	         -0.00013291	          0.00000000	         -0.00003417	         -9.08424256	        506.12197462	        -31.07128436	          0.29310835	          0.00000000	          0.11174988	          0.00000000	         -0.00023445	          0.00000000	          0.00000000	          0.32021766	          0.00000000	
          1.91000000	          0.06111477	          0.20565812	         -0.00318819	         -0.00013860	          0.00000000	         -0.00003654	         -8.90515565	        506.37740899	        -30.92401759	          0.29350688	          0.00000000	          0.11169013	          0.00000000	         -0.00021066	          0.00000000	          0.00000000	          0.33306913	          0.00000000	
          1.91100000	          0.05809516	          0.19763419	         -0.00296565	         -0.00014329	          0.00000000	         -0.00003857	         -8.73165897	        506.66452829	        -30.78433437	          0.29391085	          0.00000000	          0.11163056	          0.00000000	         -0.00018809	          0.00000000	          0.00000000	          0.34632818	          0.00000000	
          1.91200000	          0.05511275	          0.18954567	         -0.00275082	         -0.00014703	          0.00000000	         -0.00004029	         -8.56356528	        506.98273945	        -30.65252421	          0.29432026	          0.00000000	          0.11157118	          0.00000000	         -0.00016674	          0.00000000	          0.00000000	          0.35998418	          0.00000000	
          1.91300000	          0.05217567	          0.18142862	         -0.00254386	         -0.00014990	          0.00000000	         -0.00004170	         -8.40068000	        507.33146529	        -30.52886150	          0.29473509	          0.00000000	          0.11151205	          0.00000000	         -0.00014656	          0.00000000	          0.00000000	          0.37402544	          0.00000000	
          1.91400000	          0.04929115	          0.17331614	         -0.00234489	         -0.00015196	          0.00000000	         -0.00004284	         -8.24280109	        507.71014304	        -30.41360463	          0.29515533	          0.00000000	          0.11145320	          0.00000000	         -0.00012755	          0.00000000	          0.00000000	          0.38843933	          0.00000000	
          1.91500000	          0.04646562	          0.16523849	         -0.00215397	         -0.00015327	          0.00000000	         -0.00004372	         -8.08971933	        508.11822291	        -30.30699526	          0.29558094	          0.00000000	          0.11139465	          0.00000000	         -0.00010967	          0.00000000	          0.00000000	          0.40321239	          0.00000000	
          1.91600000	          0.04370475	          0.15722324	         -0.00197115	         -0.00015389	          0.00000000	         -0.00004436	         -7.94121872	        508.55516698	        -30.20925780	          0.29601190	          0.00000000	          0.11133644	          0.00000000	         -0.00009290	          0.00000000	          0.00000000	          0.41833055	          0.00000000	
          1.91700000	          0.04101347	          0.14929538	         -0.00179642	         -0.00015388	          0.00000000	         -0.00004478	         -7.79707710	        509.02044815	        -30.12059918	          0.29644817	          0.00000000	          0.11127860	          0.00000000	         -0.00007721	          0.00000000	          0.00000000	          0.43377932	          0.00000000	
          1.91800000	          0.03839603	          0.14147742	         -0.00162976	         -0.00015328	          0.00000000	         -0.00004499	         -7.65706686	        509.51354833	        -30.04120897	          0.29688971	          0.00000000	          0.11122116	          0.00000000	         -0.00006255	          0.00000000	          0.00000000	          0.44954402	          0.00000000	
          1.91900000	          0.03585605	          0.13378956	         -0.00147112	         -0.00015216	          0.00000000	         -0.00004502	         -7.52095544	        510.03395541	        -29.97125959	          0.29733647	          0.00000000	          0.11116416	          0.00000000	         -0.00004891	          0.00000000	          0.00000000	          0.46560992	          0.00000000	
          1.92000000	          0.03339653	          0.12624980	         -0.00132040	         -0.00015056	          0.00000000	         -0.00004487	         -7.38850583	        510.58115958	        -29.91090651	          0.29778841	          0.00000000	          0.11110762	          0.00000000	         -0.00003624	          0.00000000	          0.00000000	          0.48196243	          0.00000000	
          1.92100000	          0.03101994	          0.11887403	         -0.00117750	         -0.00014852	          0.00000000	         -0.00004457	         -7.25947706	        511.15464986	        -29.86028835	          0.29824546	          0.00000000	          0.11105158	          0.00000000	         -0.00002451	          0.00000000	          0.00000000	          0.49858699	          0.00000000	
          1.92200000	          0.02872820	          0.11167618	         -0.00104231	         -0.00014610	          0.00000000	         -0.00004412	         -7.13362486	        511.75391150	        -29.81952665	          0.29870757	          0.00000000	          0.11099606	          0.00000000	         -0.00001369	          0.00000000	          0.00000000	          0.51546898	          0.00000000	
          1.92300000	          0.02652275	          0.10466833	         -0.00091467	         -0.00014333	          0.00000000	         -0.00004355	         -7.01070264	        512.37842438	        -29.78872571	          0.29917468	          0.00000000	          0.11094108	          0.00000000	         -0.00000373	          0.00000000	          0.00000000	          0.53259344	          0.00000000	
          1.92400000	          0.02440460	          0.09786080	         -0.00079443	         -0.00014025	          0.00000000	         -0.00004286	         -6.89046247	        513.02766177	        -29.76797197	          0.29964670	          0.00000000	          0.11088667	          0.00000000	          0.00000539	          0.00000000	          0.00000000	          0.54994482	          0.00000000	
          1.92500000	          0.02237432	          0.09126227	         -0.00068141	         -0.00013691	          0.00000000	         -0.00004206	         -6.77265617	        513.70108944	        -29.75733344	          0.30012356	          0.00000000	          0.11083283	          0.00000000	          0.00001372	          0.00000000	          0.00000000	          0.56750689	          0.00000000	
          1.92600000	          0.02043211	          0.08487993	         -0.00057543	         -0.00013333	          0.00000000	         -0.00004118	         -6.65703610	        514.39816490	        -29.75685883	          0.30060519	          0.00000000	          0.11077958	          0.00000000	          0.00002128	          0.00000000	          0.00000000	          0.58526268	          0.00000000	
          1.92700000	          0.01857784	          0.07871949	         -0.00047628	         -0.00012956	          0.00000000	         -0.00004021	         -6.54335595	        515.11833688	        -29.76657688	          0.30109149	          0.00000000	          0.11072693	          0.00000000	          0.00002813	          0.00000000	          0.00000000	          0.60319470	          0.00000000	
          1.92800000	          0.01681102	          0.07278538	         -0.00038376	         -0.00012561	          0.00000000	         -0.00003917	         -6.43137128	        515.86104520	        -29.78649577	          0.30158237	          0.00000000	          0.11067489	          0.00000000	          0.00003428	          0.00000000	          0.00000000	          0.62128521	          0.00000000	
